<svg xmlns="http://www.w3.org/2000/svg" xmlns:xlink="http://www.w3.org/1999/xlink" viewBox="0,0,256,256" width="40px" height="40px" fill-rule="nonzero"><g fill="#ffffff" fill-rule="nonzero" stroke="none" stroke-width="1" stroke-linecap="butt" stroke-linejoin="miter" stroke-miterlimit="10" stroke-dasharray="" stroke-dashoffset="0" font-family="none" font-weight="none" font-size="none" text-anchor="none" style="mix-blend-mode: normal"><g transform="scale(5.33333,5.33333)"><path d="M21.54102,4.0957c-0.26369,-0.00464 -0.53159,0.02212 -0.80078,0.08203v-0.00195l-13.2168,2.9375c-2.05054,0.45584 -3.52344,2.29365 -3.52344,4.39453v24.98438c0,2.10139 1.47358,3.93884 3.52344,4.39453l13.2168,2.9375v-0.00195c2.15354,0.47938 4.25977,-1.21051 4.25977,-3.41602v-32.8125c0,-1.92982 -1.61314,-3.46556 -3.45898,-3.49805zM28,11.05078v11.13867l3.50977,2.48047l13.48047,-9.30078c-0.09,-2.4 -2.07023,-4.31836 -4.49023,-4.31836zM14.5,16.5c3.084,0 5.5,3.514 5.5,8c0,4.486 -2.416,8 -5.5,8c-3.084,0 -5.5,-3.514 -5.5,-8c0,-4.486 2.416,-8 5.5,-8zM45,19.00977l-12.65039,8.7207c-0.25,0.18 -0.54961,0.26953 -0.84961,0.26953c-0.3,0 -0.60914,-0.0893 -0.86914,-0.2793l-2.63086,-1.86133v12.19141h12.5c2.48,0 4.5,-2.02 4.5,-4.5zM14.5,19.5c-1.18,0 -2.5,2.138 -2.5,5c0,2.862 1.32,5 2.5,5c1.18,0 2.5,-2.138 2.5,-5c0,-2.862 -1.32,-5 -2.5,-5z"></path></g></g></svg>